<svg id="Capa_1" enable-background="new 0 0 512 512" height="512" viewBox="0 0 512 512" width="512" xmlns="http://www.w3.org/2000/svg"><g><path d="m492.797 384.177h-473.594c-10.55 0-19.102-8.552-19.102-19.102v-345.973c0-10.55 8.552-19.102 19.102-19.102h473.593c10.55 0 19.102 8.552 19.102 19.102v345.972c.001 10.551-8.551 19.103-19.101 19.103z" fill="#64caff"/><path d="m492.797 0h-27.219c10.55 0 19.102 8.552 19.102 19.102v345.972c0 10.55-8.552 19.102-19.102 19.102h27.219c10.55 0 19.102-8.552 19.102-19.102v-345.972c0-10.55-8.552-19.102-19.102-19.102z" fill="#00b8ff"/><circle cx="224.019" cy="192.089" fill="#6c5e69" r="148.903"/><path d="m224.019 43.186c-4.322 0-8.598.195-12.826.556 76.23 6.505 136.076 70.432 136.076 148.347s-59.846 141.842-136.076 148.347c4.229.361 8.504.556 12.826.556 82.237 0 148.903-66.666 148.903-148.903s-66.666-148.903-148.903-148.903z" fill="#574d56"/><g><g><path d="m304.176 143.436c-2.429 0-4.818-1.141-6.323-3.277-16.124-22.88-41.345-36.81-69.197-38.217-4.262-.215-7.542-3.845-7.326-8.107.215-4.262 3.864-7.542 8.106-7.326 32.629 1.649 62.17 17.959 81.049 44.748 2.458 3.488 1.623 8.308-1.865 10.767-1.354.953-2.907 1.412-4.444 1.412z" fill="#574d56"/></g><g><path d="m224.019 297.804c-31.373 0-60.93-13.814-81.092-37.898-2.739-3.273-2.307-8.145.965-10.884 3.272-2.738 8.146-2.306 10.884.965 17.218 20.568 42.457 32.365 69.243 32.365.973 0 1.942-.022 2.908-.052 4.267-.141 7.833 3.213 7.967 7.478.135 4.265-3.213 7.832-7.477 7.967-1.129.035-2.26.059-3.398.059z" fill="#574d56"/></g></g><circle cx="224.019" cy="192.089" fill="#faf7f8" r="53.414"/><path d="m224.019 138.675c-4.46 0-8.788.555-12.929 1.585 23.251 5.782 40.485 26.789 40.485 51.829s-17.234 46.048-40.485 51.829c4.141 1.03 8.47 1.585 12.929 1.585 29.5 0 53.414-23.914 53.414-53.414s-23.914-53.414-53.414-53.414z" fill="#e7e2e6"/><g><path d="m454.715 218.591c-10.937-.389-19.925 8.361-19.925 19.211v-41.918c0-10.424-8.106-19.302-18.523-19.672-10.937-.389-19.925 8.361-19.925 19.211v-39.008c0-10.424-8.106-19.302-18.523-19.672-10.936-.389-19.925 8.362-19.925 19.211v29.941c0-10.85-8.988-19.6-19.925-19.211-10.417.37-18.523 9.248-18.523 19.672v106.702c0 1.234-1.437 1.911-2.389 1.125l-20.978-17.326c-8.329-6.879-20.657-5.703-27.536 2.626-6.71 8.124-5.778 20.103 2.107 27.092l49.127 43.546c5.776 5.12 9.082 12.468 9.082 20.186v138.334c0 1.854 1.503 3.358 3.358 3.358h99.431c1.854 0 3.358-1.503 3.358-3.358v-113.897c0-8.021 3.569-15.625 9.739-20.75l5.851-4.86c14.343-11.914 22.64-29.592 22.64-48.238v-22.153-60.48c.002-10.424-8.103-19.302-18.521-19.672z" fill="#ffe6c2"/><g><path d="m455.728 218.653c-4.246-.371-8.221.663-11.555 2.657 5.7 3.463 9.473 9.846 9.473 16.953v60.48 22.153c0 18.645-8.297 36.324-22.64 48.238l-5.851 4.861c-6.17 5.125-9.739 12.73-9.739 20.75v117.255h16.235c1.854 0 3.358-1.503 3.358-3.358v-113.898c0-8.021 3.569-15.625 9.739-20.75l5.851-4.86c14.343-11.914 22.64-29.596 22.64-48.242 0-11.574 0-22.149 0-22.149v-60.48c-.001-10.039-7.51-18.737-17.511-19.61z" fill="#ffd3a3"/></g><g><path d="m357.896 295.128c-4.268 0-7.726-3.459-7.726-7.726v-101.506c0-4.268 3.459-7.726 7.726-7.726s7.726 3.459 7.726 7.726v101.506c0 4.267-3.458 7.726-7.726 7.726z" fill="#ffd3a3"/></g><g><path d="m396.344 295.128c-4.268 0-7.726-3.459-7.726-7.726v-91.979c0-4.268 3.459-7.726 7.726-7.726s7.726 3.459 7.726 7.726v91.979c0 4.267-3.459 7.726-7.726 7.726z" fill="#ffd3a3"/></g><g><path d="m434.79 295.128c-4.268 0-7.726-3.459-7.726-7.726v-49.601c0-4.268 3.459-7.726 7.726-7.726s7.726 3.459 7.726 7.726v49.601c.001 4.267-3.458 7.726-7.726 7.726z" fill="#ffd3a3"/></g></g><path d="m437.364 468.671h-113.268c-5.553 0-10.054-4.501-10.054-10.054v-17.999c0-5.553 4.501-10.054 10.054-10.054h113.268c5.553 0 10.054 4.501 10.054 10.054v17.999c0 5.553-4.502 10.054-10.054 10.054z" fill="#ff7383"/><path d="m437.364 430.564h-19.384c5.553 0 10.054 4.501 10.054 10.054v17.999c0 5.553-4.501 10.054-10.054 10.054h19.384c5.553 0 10.054-4.501 10.054-10.054v-17.999c0-5.553-4.502-10.054-10.054-10.054z" fill="#ff546a"/><g><path d="m224.019 202.911c-4.267 0-7.726-3.459-7.726-7.726v-6.192c0-4.268 3.459-7.726 7.726-7.726s7.726 3.459 7.726 7.726v6.192c.001 4.267-3.459 7.726-7.726 7.726z" fill="#e7e2e6"/></g><g><path d="m137.2 173.469c-1.229 0-2.476-.295-3.636-.914l-76.384-40.829c-2.514-1.344-4.084-3.963-4.084-6.814v-68.843c0-4.268 3.459-7.726 7.726-7.726s7.726 3.459 7.726 7.726v64.212l72.3 38.646c3.763 2.011 5.183 6.693 3.172 10.456-1.391 2.603-4.061 4.085-6.82 4.086z" fill="#faf7f8"/></g><g><g><path d="m375.368 100.893c-4.268 0-7.726-3.459-7.726-7.726v-60.291c0-4.268 3.459-7.726 7.726-7.726s7.726 3.459 7.726 7.726v60.291c0 4.267-3.459 7.726-7.726 7.726z" fill="#faf7f8"/></g><g><path d="m385.107 59.145h-19.479c-4.268 0-7.726-3.459-7.726-7.726s3.459-7.726 7.726-7.726h19.479c4.268 0 7.726 3.459 7.726 7.726s-3.458 7.726-7.726 7.726z" fill="#6ce79a"/></g></g><g><g><path d="m423.431 100.893c-4.268 0-7.726-3.459-7.726-7.726v-60.291c0-4.268 3.459-7.726 7.726-7.726s7.726 3.459 7.726 7.726v60.291c.001 4.267-3.458 7.726-7.726 7.726z" fill="#faf7f8"/></g><g><path d="m433.171 80.581h-19.479c-4.268 0-7.726-3.459-7.726-7.726 0-4.268 3.459-7.726 7.726-7.726h19.479c4.268 0 7.726 3.459 7.726 7.726s-3.459 7.726-7.726 7.726z" fill="#ff7383"/></g></g><g><g><path d="m471.495 100.893c-4.268 0-7.726-3.459-7.726-7.726v-60.291c0-4.268 3.459-7.726 7.726-7.726 4.268 0 7.726 3.459 7.726 7.726v60.291c0 4.267-3.459 7.726-7.726 7.726z" fill="#faf7f8"/></g><g><path d="m481.234 63.795h-19.479c-4.268 0-7.726-3.459-7.726-7.726s3.459-7.726 7.726-7.726h19.479c4.268 0 7.726 3.459 7.726 7.726s-3.458 7.726-7.726 7.726z" fill="#ffe270"/></g></g><g><path d="m93.498 348.718h-50.952c-4.267 0-7.726-3.459-7.726-7.726s3.459-7.726 7.726-7.726h50.952c4.267 0 7.726 3.459 7.726 7.726s-3.459 7.726-7.726 7.726z" fill="#6c5e69"/></g><path d="m75.453 67.751h-29.261c-4.416 0-7.996-3.58-7.996-7.996v-15.651c0-4.416 3.58-7.996 7.996-7.996h29.261c4.416 0 7.996 3.58 7.996 7.996v15.651c0 4.416-3.58 7.996-7.996 7.996z" fill="#6c5e69"/></g></svg>