<?xml version="1.0" encoding="UTF-8"?>
<svg xmlns="http://www.w3.org/2000/svg" xmlns:xlink="http://www.w3.org/1999/xlink" version="1.1" id="Capa_1" x="0px" y="0px" viewBox="0 0 512 512" style="enable-background:new 0 0 512 512;" xml:space="preserve" width="512" height="512">
<g>
	<g>
		<g>
			<path style="fill:#5AD6FF;" d="M466.713,504.5H45.287c-20.866,0-37.781-16.915-37.781-37.781V413.3&#10;&#9;&#9;&#9;&#9;c0-20.866,16.915-37.781,37.781-37.781h421.426c20.866,0,37.781,16.915,37.781,37.781v53.42&#10;&#9;&#9;&#9;&#9;C504.494,487.585,487.579,504.5,466.713,504.5z"/>
		</g>
		<g>
			<path style="fill:#FF6E80;" d="M351.299,334.642c0-0.384-0.002-0.769-0.006-1.154c-0.57-54.392-42.491-98.856-93.928-99.617&#10;&#9;&#9;&#9;&#9;c-53.258-0.788-96.665,44.626-96.665,100.76c0,0.162,0,0.324,0.001,0.486c0.102,22.781,17.8,41.101,39.344,41.101H311.95&#10;&#9;&#9;&#9;&#9;C333.67,376.218,351.297,357.609,351.299,334.642z"/>
			<path style="fill:#F9475E;" d="M237.683,366.699c0-51.581,39.712-93.882,90.229-98.009&#10;&#9;&#9;&#9;&#9;c-17.229-20.966-42.469-34.404-70.547-34.82c-53.258-0.788-96.664,44.626-96.664,100.76c0,0.162,0,0.324,0.001,0.486&#10;&#9;&#9;&#9;&#9;c0.102,22.781,17.8,41.101,39.344,41.101h38.097C237.842,373.085,237.683,369.911,237.683,366.699z"/>
		</g>
		<ellipse style="fill:#3B5A9B;" cx="136.522" cy="375.801" rx="105.909" ry="41.86"/>
		<circle style="fill:#FF6E80;" cx="192.97" cy="461.061" r="14.952"/>
		<circle style="fill:#FF6E80;" cx="256" cy="461.061" r="14.952"/>
		<circle style="fill:#FF6E80;" cx="319.03" cy="461.061" r="14.952"/>
		<ellipse style="fill:#3B5A9B;" cx="375.478" cy="375.801" rx="105.909" ry="41.86"/>
		<path style="fill:#5972A5;" d="M126.18,215.597h-1.029c-23.43,0-42.423-18.993-42.423-42.423v-13.606&#10;&#9;&#9;&#9;c0-23.43,18.993-42.423,42.423-42.423h1.029c14.415,0,26.101,11.686,26.101,26.101v46.251&#10;&#9;&#9;&#9;C152.281,203.912,140.595,215.597,126.18,215.597z"/>
		<path style="fill:#5972A5;" d="M384.242,215.597h1.029c23.43,0,42.423-18.993,42.423-42.423v-13.606&#10;&#9;&#9;&#9;c0-23.43-18.993-42.423-42.423-42.423h-1.029c-14.415,0-26.101,11.686-26.101,26.101v46.251&#10;&#9;&#9;&#9;C358.141,203.912,369.827,215.597,384.242,215.597z"/>
		<path style="fill:#3B5A9B;" d="M380.489,173.489c3.359-11.529,5.168-23.719,5.168-36.333C385.657,65.549,327.607,7.5,256,7.5&#10;&#9;&#9;&#9;S126.343,65.549,126.343,137.157c0,12.614,1.809,24.804,5.168,36.333H380.489z"/>
		<g>
			<circle style="fill:#FFDDCF;" cx="256" cy="180.042" r="124.997"/>
			<path style="fill:#FFCBBE;" d="M199.909,171.767c0-44.449,16.43-85.057,43.541-116.096&#10;&#9;&#9;&#9;&#9;c-63.14,6.295-112.447,59.574-112.447,124.372c0,69.034,55.963,124.997,124.997,124.997c1.525,0,3.042-0.037,4.554-0.091&#10;&#9;&#9;&#9;&#9;C223.396,272.578,199.909,224.917,199.909,171.767z"/>
		</g>
		<path style="fill:#F9D171;" d="M380.828,173.519c-2.261-43.975-27.252-81.938-63.451-102.383&#10;&#9;&#9;&#9;c-0.181,2.477-0.289,4.975-0.289,7.498C317.089,121.524,343.442,158.231,380.828,173.519z"/>
		<g>
			<path style="fill:#FBF198;" d="M185.862,171.767c75.463,0,138.921-34.486,157.343-81.264&#10;&#9;&#9;&#9;&#9;C320.684,68.565,289.923,55.046,256,55.046c-64.145,0-116.996,48.321-124.161,110.547&#10;&#9;&#9;&#9;&#9;C148.744,169.587,166.922,171.767,185.862,171.767z"/>
			<path style="fill:#F9D171;" d="M243.446,55.674c-58.374,5.823-104.916,51.803-111.607,109.918&#10;&#9;&#9;&#9;&#9;c16.905,3.995,35.083,6.175,54.023,6.175c4.734,0,9.421-0.136,14.052-0.402C200.013,127.075,216.42,86.619,243.446,55.674z"/>
		</g>
		<path style="fill:#303646;" d="M212.711,201.643h-21.43c-9.003,0-15.713,8.302-13.826,17.104l1.187,5.535&#10;&#9;&#9;&#9;c1.995,9.303,10.216,15.949,19.731,15.949h7.246c9.514,0,17.736-6.646,19.731-15.949l1.187-5.535&#10;&#9;&#9;&#9;C228.424,209.945,221.714,201.643,212.711,201.643z"/>
		<path style="fill:#303646;" d="M299.289,201.643h21.43c9.003,0,15.713,8.302,13.826,17.104l-1.187,5.535&#10;&#9;&#9;&#9;c-1.995,9.303-10.216,15.949-19.731,15.949h-7.246c-9.514,0-17.736-6.646-19.731-15.949l-1.187-5.535&#10;&#9;&#9;&#9;C283.576,209.945,290.286,201.643,299.289,201.643z"/>
		<ellipse style="fill:#FFF8E6;" cx="136.522" cy="375.801" rx="39.451" ry="14.334"/>
		<ellipse style="fill:#FFF8E6;" cx="375.478" cy="375.801" rx="39.451" ry="14.334"/>
		<ellipse style="fill:#FFCBBE;" cx="140.339" cy="319.171" rx="31.816" ry="27.772"/>
		<ellipse style="fill:#FFDDCF;" cx="371.661" cy="319.171" rx="31.816" ry="27.772"/>
	</g>
	<g>
		<path style="fill:none;stroke:#000000;stroke-width:15;stroke-linecap:round;stroke-linejoin:round;stroke-miterlimit:10;" d="&#10;&#9;&#9;&#9;M177.57,277.39c-19.94-16.1-34.84-38.19-41.95-63.55c-3.01-10.75-4.62-22.09-4.62-33.8c-0.572-49.267,30.904-96.51,76.44-115.2&#10;&#9;&#9;&#9;c45.156-19.538,100.69-9.129,135.63,25.53c0-0.01,0.01,0.01,0.01,0.01c0.013-0.022,0.014,0.02,0.03,0.03&#10;&#9;&#9;&#9;c0.01-0.01,0.02,0,0.03,0.03c0.01-0.017,0.021,0.005,0.02,0.02c0.009-0.027,0.019,0.004,0.02,0.02&#10;&#9;&#9;&#9;c0.01-0.017,0.021,0.005,0.02,0.02c0.553,0.488,1.058,1.023,1.58,1.55c0.01-0.01,0.02,0,0.02,0.03&#10;&#9;&#9;&#9;c31.507,31.052,43.92,79.988,31.43,122.27c-7.17,25.18-22.04,47.12-41.89,63.11"/>
		<path style="fill:none;stroke:#000000;stroke-width:15;stroke-linecap:round;stroke-linejoin:round;stroke-miterlimit:10;" d="&#10;&#9;&#9;&#9;M241.28,235.06c3.45,3.5,8.24,5.67,13.56,5.67c5.45,0,10.37-2.29,13.85-5.97"/>
		<path style="fill:none;stroke:#000000;stroke-width:15;stroke-linecap:round;stroke-linejoin:round;stroke-miterlimit:10;" d="&#10;&#9;&#9;&#9;M127.87,117.2c-0.56-0.04-1.12-0.06-1.69-0.06h-1.03c-23.43,0-42.42,19-42.42,42.43v13.6c0,23.43,18.99,42.43,42.42,42.43h1.03&#10;&#9;&#9;&#9;c3.33,0,6.52-0.62,9.44-1.76"/>
		<path style="fill:none;stroke:#000000;stroke-width:15;stroke-linecap:round;stroke-linejoin:round;stroke-miterlimit:10;" d="&#10;&#9;&#9;&#9;M384.13,117.14c0.04,0,0.07,0,0.11,0h1.03c23.43,0,42.42,19,42.42,42.43v13.6c0,23.43-18.99,42.43-42.42,42.43h-1.03&#10;&#9;&#9;&#9;c-2.79,0-5.49-0.44-8.01-1.25"/>
		<path style="fill:none;stroke:#000000;stroke-width:15;stroke-linecap:round;stroke-linejoin:round;stroke-miterlimit:10;" d="&#10;&#9;&#9;&#9;M184.81,28.774c-29.944,19.708-51.234,51.491-56.94,88.426c-1.01,6.5-1.53,13.17-1.53,19.96c0,12.24,1.71,24.08,4.88,35.31"/>
		<path style="fill:none;stroke:#000000;stroke-width:15;stroke-linecap:round;stroke-linejoin:round;stroke-miterlimit:10;" d="&#10;&#9;&#9;&#9;M380.52,173.39c0.09-0.3,0.17-0.6,0.25-0.9c0.01-0.01,0.01-0.01,0.01-0.01c4.989-17.355,6.222-37.215,3.35-55.34&#10;&#9;&#9;&#9;C374.5,55.03,320.8,7.5,256,7.5c-13.73,0-26.962,2.134-39.382,6.088"/>
		<path style="fill:none;stroke:#000000;stroke-width:15;stroke-linecap:round;stroke-linejoin:round;stroke-miterlimit:10;" d="&#10;&#9;&#9;&#9;M185.862,171.767c75.463,0,138.921-34.486,157.343-81.264c-72.109-72.286-200.943-26.61-211.365,75.09&#10;&#9;&#9;&#9;C148.744,169.587,166.922,171.767,185.862,171.767z"/>
		<path style="fill:none;stroke:#000000;stroke-width:15;stroke-linecap:round;stroke-linejoin:round;stroke-miterlimit:10;" d="&#10;&#9;&#9;&#9;M317.38,71.14c36.769,20.439,61.629,60.301,63.45,102.38c-8.128-3.33-15.754-7.672-22.69-12.88&#10;&#9;&#9;&#9;c-14.32-10.73-25.73-25.12-32.85-41.78"/>
		<path style="fill:none;stroke:#000000;stroke-width:15;stroke-linecap:round;stroke-linejoin:round;stroke-miterlimit:10;" d="&#10;&#9;&#9;&#9;M240.48,234.19c0.26,0.3,0.52,0.59,0.8,0.87c3.45,3.5,8.24,5.67,13.56,5.67c5.45,0,10.37-2.29,13.85-5.97&#10;&#9;&#9;&#9;c0.17-0.19,0.34-0.38,0.51-0.57"/>
		<path style="fill:none;stroke:#000000;stroke-width:15;stroke-linecap:round;stroke-linejoin:round;stroke-miterlimit:10;" d="&#10;&#9;&#9;&#9;M288.772,206.409c-7.436-1.014-18.534-2.321-32.772-2.321c-14.238,0-25.336,1.307-32.772,2.321"/>
		<path style="fill:none;stroke:#000000;stroke-width:15;stroke-linecap:round;stroke-linejoin:round;stroke-miterlimit:10;" d="&#10;&#9;&#9;&#9;M212.711,201.643h-21.43c-9.003,0-15.713,8.302-13.826,17.104l1.187,5.535c1.995,9.303,10.216,15.948,19.731,15.948h7.246&#10;&#9;&#9;&#9;c9.514,0,17.736-6.646,19.731-15.948l1.187-5.535C228.424,209.945,221.714,201.643,212.711,201.643z"/>
		<path style="fill:none;stroke:#000000;stroke-width:15;stroke-linecap:round;stroke-linejoin:round;stroke-miterlimit:10;" d="&#10;&#9;&#9;&#9;M299.289,201.643h21.43c9.003,0,15.713,8.302,13.826,17.104l-1.187,5.535c-1.995,9.303-10.216,15.948-19.731,15.948h-7.246&#10;&#9;&#9;&#9;c-9.514,0-17.736-6.646-19.731-15.948l-1.187-5.535C283.576,209.945,290.286,201.643,299.289,201.643z"/>
		<path style="fill:none;stroke:#000000;stroke-width:15;stroke-linecap:round;stroke-linejoin:round;stroke-miterlimit:10;" d="&#10;&#9;&#9;&#9;M166,335.59c43.93,5.02,76.11,20.98,76.42,39.93"/>
		<path style="fill:none;stroke:#000000;stroke-width:15;stroke-linecap:round;stroke-linejoin:round;stroke-miterlimit:10;" d="&#10;&#9;&#9;&#9;M114.1,334.88h-0.01c-47.72,4.07-83.48,20.84-83.48,40.92c0,0.87,0.07,1.74,0.21,2.59c3.38,21.92,49.41,39.27,105.7,39.27&#10;&#9;&#9;&#9;c58.13,0,105.33-18.51,105.9-41.44"/>
		
			<ellipse style="fill:none;stroke:#000000;stroke-width:15;stroke-linecap:round;stroke-linejoin:round;stroke-miterlimit:10;" cx="136.522" cy="375.801" rx="39.451" ry="14.334"/>
		<path style="fill:none;stroke:#000000;stroke-width:15;stroke-linecap:round;stroke-linejoin:round;stroke-miterlimit:10;" d="&#10;&#9;&#9;&#9;M346,335.59c-43.93,5.02-76.11,20.98-76.42,39.93c-0.01,0.09-0.01,0.19-0.01,0.28c0,0.14,0,0.28,0.01,0.42&#10;&#9;&#9;&#9;c0.57,22.93,47.77,41.44,105.9,41.44c56.29,0,102.32-17.35,105.7-39.27c0.14-0.85,0.21-1.72,0.21-2.59&#10;&#9;&#9;&#9;c0-20.08-35.76-36.85-83.48-40.92h-0.01"/>
		<path style="fill:none;stroke:#000000;stroke-width:15;stroke-linecap:round;stroke-linejoin:round;stroke-miterlimit:10;" d="&#10;&#9;&#9;&#9;M414.93,375.8c0,7.92-17.66,14.33-39.45,14.33s-39.45-6.41-39.45-14.33c0-0.09,0-0.19,0.01-0.28&#10;&#9;&#9;&#9;c0.41-7.79,17.91-14.05,39.44-14.05s39.03,6.26,39.44,14.05C414.93,375.61,414.93,375.71,414.93,375.8z"/>
		
			<line style="fill:none;stroke:#000000;stroke-width:15;stroke-linecap:round;stroke-linejoin:round;stroke-miterlimit:10;" x1="269.58" y1="375.52" x2="242.42" y2="375.52"/>
		<path style="fill:none;stroke:#000000;stroke-width:15;stroke-linecap:round;stroke-linejoin:round;stroke-miterlimit:10;" d="&#10;&#9;&#9;&#9;M368.152,504.5H45.29c-20.87,0-37.78-16.91-37.78-37.78V413.3c0-15.74,9.62-29.23,23.31-34.91"/>
		<path style="fill:none;stroke:#000000;stroke-width:15;stroke-linecap:round;stroke-linejoin:round;stroke-miterlimit:10;" d="&#10;&#9;&#9;&#9;M481.18,378.39c13.69,5.68,23.31,19.17,23.31,34.91v53.42c0,20.87-16.91,37.78-37.78,37.78h-63.558"/>
		
			<circle style="fill:none;stroke:#000000;stroke-width:15;stroke-linecap:round;stroke-linejoin:round;stroke-miterlimit:10;" cx="192.97" cy="461.061" r="14.952"/>
		
			<circle style="fill:none;stroke:#000000;stroke-width:15;stroke-linecap:round;stroke-linejoin:round;stroke-miterlimit:10;" cx="256" cy="461.061" r="14.952"/>
		
			<circle style="fill:none;stroke:#000000;stroke-width:15;stroke-linecap:round;stroke-linejoin:round;stroke-miterlimit:10;" cx="319.03" cy="461.061" r="14.952"/>
		<path style="fill:none;stroke:#000000;stroke-width:15;stroke-linecap:round;stroke-linejoin:round;stroke-miterlimit:10;" d="&#10;&#9;&#9;&#9;M241.28,235.06c3.45,3.5,8.24,5.67,13.56,5.67c5.45,0,10.37-2.29,13.85-5.97"/>
		<path style="fill:none;stroke:#000000;stroke-width:15;stroke-linecap:round;stroke-linejoin:round;stroke-miterlimit:10;" d="&#10;&#9;&#9;&#9;M165.69,302.39c2.85-8.96,6.88-17.36,11.88-25c21.45,17.29,48.73,27.65,78.43,27.65c29.66,0,56.9-10.33,78.34-27.58&#10;&#9;&#9;&#9;c5.02,7.64,9.06,16.03,11.93,24.98"/>
		<path style="fill:none;stroke:#000000;stroke-width:15;stroke-linecap:round;stroke-linejoin:round;stroke-miterlimit:10;" d="&#10;&#9;&#9;&#9;M242.42,375.52c0.01,0.09,0.01,0.19,0.01,0.28c0,0.14,0,0.28-0.01,0.42h27.16"/>
		
			<ellipse style="fill:none;stroke:#000000;stroke-width:15;stroke-linecap:round;stroke-linejoin:round;stroke-miterlimit:10;" cx="140.339" cy="319.171" rx="31.816" ry="27.772"/>
		<path style="fill:none;stroke:#000000;stroke-width:15;stroke-linecap:round;stroke-linejoin:round;stroke-miterlimit:10;" d="&#10;&#9;&#9;&#9;M403.48,319.17c0,5.83-2.06,11.24-5.57,15.71h-0.01c-5.73,7.28-15.35,12.06-26.24,12.06c-7.91,0-15.16-2.53-20.72-6.71&#10;&#9;&#9;&#9;c-1.84-1.37-3.5-2.93-4.94-4.64c-3.87-4.6-6.15-10.28-6.15-16.42c0-6.28,2.39-12.07,6.42-16.73c5.8-6.71,15.01-11.04,25.39-11.04&#10;&#9;&#9;&#9;C389.23,291.4,403.48,303.83,403.48,319.17z"/>
	</g>
</g>















</svg>
