<svg id="Layer_1" enable-background="new 0 0 510 510" height="512" viewBox="0 0 510 510" width="512" xmlns="http://www.w3.org/2000/svg"><g id="XMLID_4082_"><g id="XMLID_4237_"><g><path id="XMLID_68_" d="m481.1 135c-10.1-10.1-21.7-21.7-31.8-31.8l3.2-18 18-3.2c10.1 10.1 21.7 21.7 31.8 31.8-7.4 7.4-13.8 13.8-21.2 21.2z" fill="#08475e"/></g></g><g id="XMLID_4232_"><g><path id="XMLID_67_" d="m438.6 177.4c-10.1-10.1-21.7-21.7-31.8-31.8l4.6-16.7 16.7-4.6c10.1 10.1 21.7 21.7 31.8 31.8-7.5 7.6-13.8 13.9-21.3 21.3z" fill="#08475e"/></g></g><g id="XMLID_4227_"><g><path id="XMLID_124_" d="m406.8 60.8c-10.1-10.1-21.7-21.7-31.8-31.8 7.4-7.4 13.8-13.8 21.2-21.2 10.1 10.1 21.7 21.7 31.8 31.8l-4.2 17z" fill="#0a617d"/></g></g><g id="XMLID_4222_"><g><path id="XMLID_113_" d="m364.4 103.2c-10.1-10.1-21.7-21.7-31.8-31.8 7.4-7.4 13.8-13.8 21.2-21.2 10.1 10.1 21.7 21.7 31.8 31.8l-4.6 16.6z" fill="#0a617d"/></g></g><path id="XMLID_4219_" d="m213.1 162.8c-34.6 1.7-62.2 19.7-77 46.3-82.2-8.3-144.6 51.8-135.2 136.7 4.6 41.5 25.5 79.9 54.4 108.8l143.3-106.9 106.9-143.3c-29.6-28.9-50.2-43.6-92.4-41.6z" fill="#ffc649"/><path id="XMLID_4216_" d="m181 510c75.5 0 127.7-59 119.9-136 26.9-15 44.7-42.8 46.3-77 2.9-60.7-35-84.6-41.6-92.5-13.9 13.8-236.3 236.2-250.2 250.1 33.2 33.2 78.4 55.4 125.6 55.4z" fill="#ffa951"/><g id="XMLID_4209_"><path id="XMLID_4213_" d="m150 45c-24.8 0-45-20.2-45-45l-9.3 30 9.3 30c12.9 9.7 28.5 15 45 15 0-10.5 0-19.5 0-30z" fill="#00b9a0"/><path id="XMLID_4210_" d="m75 0v65.1l30 47.4c0-10.1 0-97.5 0-112.5-10.5 0-19.5 0-30 0z" fill="#00ddc1"/></g><g id="XMLID_4202_"><path id="XMLID_4206_" d="m510 390c-24.8 0-45-20.2-45-45l-9.8 30 9.8 30c12.9 9.7 28.5 15 45 15 0-10.5 0-19.5 0-30z" fill="#c44e46"/><path id="XMLID_4203_" d="m435 345v65.1l30 47.4c0-13.2 0-100.9 0-112.5-10.5 0-19.5 0-30 0z" fill="#ff6b6b"/></g><path id="XMLID_4199_" d="m456 11.6c-1.6 1.6-49.2 49.2-49.2 49.2l-5 15.2-16.2 6-21.2 21.2-6.2 16.7-15 4.5c-5.4 5.4-149.5 149.5-155.6 155.6l6.6 13.9 20.3 1.6 140.8-121.9 121.9-140.8c-7-7.1-14.1-14.1-21.2-21.2z" fill="#b0866b"/><path id="XMLID_4196_" d="m230 322.4c6.9-6.9 144-144 155.6-155.6l6-14.2 15.2-7 21.2-21.2 5.3-17.9 15.9-3.3s47.7-47.7 49.2-49.2c-7.1-7.1-14.2-14.2-21.2-21.2-7.4 7.4-255.3 255.3-262.7 262.7l2.4 19.5z" fill="#9d6b5d"/><path id="XMLID_4193_" d="m406.8 60.8c-7.4 7.4-13.8 13.8-21.2 21.2 7.4 7.4 13.8 13.8 21.2 21.2 7.4-7.4 13.8-13.8 21.2-21.2-7.4-7.4-13.8-13.8-21.2-21.2z" fill="#ffc649"/><path id="XMLID_4187_" d="m449.2 103.2c-7.4-7.4-13.8-13.8-21.2-21.2-7.4 7.4-13.8 13.8-21.2 21.2 7.4 7.4 13.8 13.8 21.2 21.2 7.4-7.4 13.8-13.8 21.2-21.2z" fill="#ffa951"/><path id="XMLID_2_" d="m364.4 103.2c-7.4 7.4-13.8 13.8-21.2 21.2 7.4 7.4 13.8 13.8 21.2 21.2 7.4-7.4 13.8-13.8 21.2-21.2-7.4-7.4-13.8-13.8-21.2-21.2z" fill="#ffc649"/><path id="XMLID_1_" d="m406.8 145.6c-7.4-7.4-13.8-13.8-21.2-21.2-7.4 7.4-13.8 13.8-21.2 21.2 7.4 7.4 13.8 13.8 21.2 21.2 7.4-7.4 13.8-13.8 21.2-21.2z" fill="#ffa951"/><path id="XMLID_4169_" d="m129.6 295.5c-23.4 23.4-23.4 61.5 0 84.9l51.2-33.6 33.6-51.2c-23.1-23.3-61.2-23.7-84.8-.1z" fill="#0a617d"/><path id="XMLID_4114_" d="m214.5 295.5c-10.3 10.3-74.5 74.5-84.9 84.9 23.6 23.6 61.6 23.3 84.9 0 23.5-23.5 23.4-61.5 0-84.9z" fill="#08475e"/><circle id="XMLID_4090_" cx="52.5" cy="112.5" fill="#00b9a0" r="52.5"/><circle id="XMLID_4084_" cx="412.5" cy="457.5" fill="#c44e46" r="52.5"/></g></svg>