<svg id="Capa_1" enable-background="new 0 0 513 513" height="512" viewBox="0 0 513 513" width="512" xmlns="http://www.w3.org/2000/svg"><g id="XMLID_226_"><path id="XMLID_2145_" d="m130.241 368.74h-30v-147.382l30-29.858z" fill="#dd00a7"/><path id="XMLID_324_" d="m118.983 337.344c-9.881-11.928-25.324-18.518-42.381-18.081-15.953.41-32.104 6.738-45.477 17.817-13.376 11.077-22.603 25.764-25.98 41.355-3.611 16.673-.016 33.08 9.866 45.017 9.573 11.556 24.371 18.103 40.792 18.103.527 0 1.057-.007 1.588-.021 15.951-.408 32.102-6.732 45.478-17.808l.003-.002c13.375-11.081 22.601-25.771 25.978-41.362 3.61-16.674.015-33.082-9.867-45.018z" fill="#da4bdd"/><path id="XMLID_2146_" d="m301.891 303.91h-30v-185.743l30-.729z" fill="#b30086"/><path id="XMLID_2144_" d="m290.636 272.607c-9.881-11.934-25.333-18.524-42.384-18.089-15.949.409-32.1 6.735-45.477 17.812-13.377 11.076-22.604 25.765-25.981 41.359-3.612 16.677-.016 33.083 9.864 45.01 9.572 11.562 24.368 18.11 40.79 18.11.529 0 1.062-.007 1.594-.021 15.949-.41 32.1-6.735 45.477-17.812 13.376-11.077 22.604-25.764 25.981-41.355 3.611-16.674.016-33.081-9.864-45.014z" fill="#dd00a7"/><path id="XMLID_3499_" d="m201.068 72.33 10 50.974-10 46.096-100.83 51.96v-97.58z" fill="#da4bdd"/><path id="XMLID_3501_" d="m301.888 20.89v96.55l-100.82 51.96v-97.07z" fill="#dd00a7"/><path id="XMLID_491_" d="m434.858 397.595h-30v-292.248l35.313 32.704c40.073 37.111 63.057 89.721 63.057 144.339h-30c0-38.935-13.781-76.666-38.37-106.389z" fill="#b30086"/><path id="XMLID_3498_" d="m371.618 349.15 10 67.361-10 52.999c-3.19.55-6.41.88-9.61.96-.53.02-1.06.02-1.59.02-16.42 0-31.22-6.54-40.79-18.1-9.88-11.93-13.48-28.34-9.87-45.02 3.38-15.59 12.6-30.28 25.98-41.36 10.7-8.86 23.17-14.67 35.88-16.86z" fill="#da4bdd"/><path id="XMLID_3502_" d="m433.468 411.3c-3.38 15.59-12.61 30.28-25.98 41.36-10.69 8.85-23.15 14.67-35.87 16.85v-120.36c3.19-.55 6.4-.87 9.6-.95 17.06-.43 32.5 6.16 42.38 18.08 9.88 11.94 13.48 28.35 9.87 45.02z" fill="#dd00a7"/><path id="XMLID_490_" d="m153.228 427.667h30v31.667h-30z" fill="#da4bdd"/><g fill="#dd00a7"><path id="XMLID_488_" d="m338.562 59.147h30v31.667h-30z"/><path id="XMLID_481_" d="m479.228 0h30v31.667h-30z"/><path id="XMLID_478_" d="m479.228 481.333h30v31.667h-30z"/></g><path id="XMLID_477_" d="m91.895 0h30v31.667h-30z" fill="#da4bdd"/><path id="XMLID_467_" d="m4.369 143.143h30v31.667h-30z" fill="#da4bdd"/></g></svg>