<svg id="Layer_1" enable-background="new 0 0 512.118 512.118" height="512" viewBox="0 0 512.118 512.118" width="512" xmlns="http://www.w3.org/2000/svg"><g><path d="m272.73 315.148v106.705c-5.18-1.987-10.8-3.078-16.671-3.078-25.735 0-46.671 20.937-46.671 46.671 0 25.735 20.937 46.671 46.671 46.671s46.671-20.937 46.671-46.671v-150.298z" fill="#ace233"/><path d="m461.152 95.964h-25.27v121.706c-5.18-1.987-10.8-3.078-16.671-3.078-25.735 0-46.672 20.937-46.672 46.671 0 25.735 20.937 46.671 46.672 46.671 25.734 0 46.671-20.937 46.671-46.671v-134.759c9.258 2.149 16.176 10.465 16.176 20.367h30c0-28.07-22.837-50.907-50.906-50.907z" fill="#0070ff"/><path d="m68.158 22.579v149.815c-5.859-2.479-12.297-3.85-19.049-3.85-27.045 0-49.049 22.003-49.049 49.049s22.003 49.049 49.049 49.049 49.049-22.003 49.049-49.049v-111.125l132.842-15.554v62.413c-5.859-2.479-12.297-3.85-19.049-3.85-27.045 0-49.049 22.003-49.049 49.049s22.003 49.049 49.049 49.049 49.049-22.003 49.049-49.049v-198.526z" fill="#e20059"/><g><path d="m312.726 134.476h30v30.002h-30z" fill="#f9f900"/></g><g><path d="m63.393 350.948h30v30.002h-30z" fill="#bee75e"/></g><g><path d="m119.393 430.799h30v30.002h-30z" fill="#f9f900"/></g><g><path d="m176.059 315.148h30v30.001h-30z" fill="#1ad0ff"/></g><g><path d="m385.392 371.131h30v30.002h-30z" fill="#e20059"/></g><g><path d="m452.059 424.464h30v30.002h-30z" fill="#00cb75"/></g><g><path d="m372.54 47.875h30v30.002h-30z" fill="#febf01"/></g><g><path d="m312.726 134.476h30v30.002h-30z" fill="#ffda2d"/></g><g><path d="m385.392 371.131h30v30.002h-30z" fill="#c1126b"/></g><g><path d="m452.059 424.464h30v30.002h-30z" fill="#00b9a0"/></g><g><path d="m372.54 47.875h30v30.002h-30z" fill="#fe9100"/></g><path d="m272.73 315.148v106.705c-5.18-1.987-10.8-3.078-16.671-3.078v93.342c25.734 0 46.671-20.937 46.671-46.671v-150.298z" fill="#00cb75"/><path d="m461.152 95.964h-25.27v121.706c-5.18-1.987-10.8-3.078-16.671-3.078v93.342c25.734 0 46.671-20.937 46.671-46.671v-134.759c9.258 2.149 16.176 10.465 16.176 20.367h30c0-28.07-22.837-50.907-50.906-50.907z" fill="#274bef"/><path d="m164.579 11.289v87.402l66.421-7.777v62.413c-5.859-2.479-12.297-3.85-19.049-3.85-27.045 0-49.049 22.003-49.049 49.049s22.003 49.049 49.049 49.049 49.049-22.003 49.049-49.049v-198.526z" fill="#c1126b"/></g></svg>