<svg id="Capa_1" enable-background="new 0 0 512 512" height="512" viewBox="0 0 512 512" width="512" xmlns="http://www.w3.org/2000/svg"><g><g><path d="m512 374.86v41.81c0 27.25-22.17 49.43-49.43 49.43-27.25 0-49.43-22.18-49.43-49.43v-40.67c0-10.71-8.71-19.43-19.43-19.43-10.71 0-19.42 8.72-19.42 19.43v86.57c0 27.26-22.18 49.43-49.43 49.43-27.26 0-49.43-22.17-49.43-49.43v-175.43c0-10.71-8.72-19.43-19.43-19.43s-19.43 8.72-19.43 19.43v175.43c0 27.26-22.17 49.43-49.43 49.43-27.25 0-49.43-22.17-49.43-49.43v-136.57c0-10.71-8.71-19.43-19.42-19.43-10.72 0-19.43 8.72-19.43 19.43v90.67c0 27.25-22.18 49.43-49.43 49.43-27.26 0-49.43-22.18-49.43-49.43v-81.81h30v81.81c0 10.71 8.72 19.43 19.43 19.43s19.43-8.72 19.43-19.43v-90.67c0-27.25 22.17-49.43 49.43-49.43 27.25 0 49.42 22.18 49.42 49.43v136.57c0 10.71 8.72 19.43 19.43 19.43 10.72 0 19.43-8.72 19.43-19.43v-175.43c0-27.25 22.18-49.43 49.43-49.43s49.43 22.18 49.43 49.43v175.43c0 10.71 8.71 19.43 19.43 19.43 10.71 0 19.43-8.72 19.43-19.43v-86.57c0-27.25 22.17-49.43 49.42-49.43 27.26 0 49.43 22.18 49.43 49.43v40.67c0 10.71 8.72 19.43 19.43 19.43s19.43-8.72 19.43-19.43v-41.81z" fill="#c469ff"/><path d="m354.41 0v161.33c0 22.05-17.94 39.98-40 39.98-22.05 0-40-17.93-40-39.98 0-22.04 17.95-39.97 40-39.97 3.45 0 6.81.43 10 1.26v-83.57l-68.41 18.26-21.59 5.76v118.25c0 22.04-17.94 39.97-40 39.97-22.05 0-40-17.93-40-39.97 0-22.05 17.95-39.98 40-39.98 3.45 0 6.81.44 10 1.27v-102.59l51.59-13.76z" fill="#ff3b61"/><path d="m439.062 297.333c22.056 0 40-17.945 40-40.003v-98.346l32.938-8.797-7.74-28.984-55.198 14.741v82.649c-3.197-.826-6.548-1.266-10-1.266-22.056 0-40 17.945-40 40.003s17.944 40.003 40 40.003z" fill="#b5003c"/><path d="m40 263.457c22.056 0 40-17.945 40-40.003v-98.346l32.938-8.796-7.74-28.984-55.198 14.739v82.649c-3.197-.826-6.548-1.266-10-1.266-22.056 0-40 17.945-40 40.003s17.944 40.004 40 40.004z" fill="#ff3b61"/></g><path d="m324.41 39.05-68.41 18.26v-31.05l98.41-26.26v161.33c0 22.05-17.94 39.98-40 39.98-22.05 0-40-17.93-40-39.98 0-22.04 17.95-39.97 40-39.97 3.45 0 6.81.43 10 1.26z" fill="#b5003c"/><path d="m512 374.86v41.81c0 27.25-22.17 49.43-49.43 49.43-27.25 0-49.43-22.18-49.43-49.43v-40.67c0-10.71-8.71-19.43-19.43-19.43-10.71 0-19.42 8.72-19.42 19.43v86.57c0 27.26-22.18 49.43-49.43 49.43-27.26 0-49.43-22.17-49.43-49.43v-175.43c0-10.71-8.72-19.43-19.43-19.43v-30c27.25 0 49.43 22.18 49.43 49.43v175.43c0 10.71 8.71 19.43 19.43 19.43 10.71 0 19.43-8.72 19.43-19.43v-86.57c0-27.25 22.17-49.43 49.42-49.43 27.26 0 49.43 22.18 49.43 49.43v40.67c0 10.71 8.72 19.43 19.43 19.43s19.43-8.72 19.43-19.43v-41.81z" fill="#7838c1"/></g></svg>
