<svg id="Capa_1" enable-background="new 0 0 510.333 510.333" height="512" viewBox="0 0 510.333 510.333" width="512" xmlns="http://www.w3.org/2000/svg"><g id="XMLID_8_"><path id="XMLID_3244_" d="m435.403 266.447h-30v-248.798l21.842 11.196c25.026 12.828 46.006 32.292 60.671 56.289 14.665 23.996 22.417 51.545 22.417 79.667v27.751h-30v-27.751c0-37.435-16.736-71.978-44.93-94.989z" fill="#1f0a33"/><ellipse id="XMLID_11_" cx="381.739" cy="266.447" fill="#c34dff" rx="53.664" ry="53.664" transform="matrix(.973 -.23 .23 .973 -51.005 94.833)"/><path id="XMLID_83_" d="m77.329 204.076v234.944h30v-148.55l138.025-47.642v138.195h30v-245.298z" fill="#301466"/><path id="XMLID_3459_" d="m176.342 169.9v96.749l69.012-23.821v138.195h30v-245.298z" fill="#1f0a33"/><ellipse id="XMLID_4317_" cx="53.664" cy="439.02" fill="#c34dff" rx="53.664" ry="53.664" transform="matrix(.973 -.23 .23 .973 -99.431 24.074)"/><g fill="#a82ee6"><ellipse id="XMLID_4299_" cx="221.69" cy="381.023" rx="53.664" ry="53.664" transform="matrix(.707 -.707 .707 .707 -204.492 268.358)"/><path id="XMLID_3485_" d="m381.739 212.782v107.329c29.59 0 53.664-24.074 53.664-53.664 0-29.591-24.073-53.665-53.664-53.665z"/></g></g></svg>
